<?xml version="1.0" standalone="no"?>
<!DOCTYPE svg PUBLIC "-//W3C//DTD SVG 20010904//EN"
 "http://www.w3.org/TR/2001/REC-SVG-20010904/DTD/svg10.dtd">
<svg version="1.0" xmlns="http://www.w3.org/2000/svg"
 width="500.000000pt" height="500.000000pt" viewBox="0 0 500.000000 500.000000"
 preserveAspectRatio="xMidYMid meet">

<g transform="translate(0.000000,500.000000) scale(0.100000,-0.100000)"
fill="#000000" stroke="none">
<path d="M2885 3610 c-134 -191 -196 -270 -209 -270 -11 0 -36 17 -56 39 -20
21 -46 44 -58 50 -28 15 -76 14 -116 -3 -20 -8 -39 -10 -47 -5 -8 5 -36 9 -62
9 -43 0 -53 -4 -85 -37 -36 -36 -40 -37 -123 -42 -95 -7 -125 -22 -131 -69 -2
-21 -12 -28 -56 -43 -29 -10 -74 -33 -101 -51 -111 -74 -145 -174 -101 -299
70 -201 190 -358 346 -455 62 -39 73 -50 76 -76 3 -28 9 -33 58 -51 46 -17 80
-21 215 -21 138 -1 168 2 215 20 49 18 55 23 58 52 3 28 10 35 60 59 194 93
400 465 343 616 -10 25 -2 29 295 197 167 95 304 178 304 185 0 26 -23 65 -42
71 -14 4 -107 -46 -316 -168 -163 -95 -301 -174 -308 -176 -15 -4 -75 33 -128
79 -22 19 -60 41 -84 48 -31 9 -42 16 -38 27 3 8 86 126 184 262 98 136 182
253 186 260 12 19 -32 62 -63 62 -23 0 -51 -36 -216 -270z m232 228 c7 -10
-78 -135 -309 -452 -269 -371 -317 -441 -303 -449 21 -11 10 -23 140 158 59
83 110 153 114 157 4 4 31 -1 61 -12 30 -11 56 -20 58 -20 2 0 10 -16 18 -35
10 -26 12 -41 4 -55 -16 -30 -12 -50 11 -50 27 0 19 -11 -26 -35 l-37 -19 -18
24 c-15 20 -22 22 -31 13 -10 -10 -9 -17 7 -34 10 -12 15 -24 9 -26 -5 -2 -56
-30 -112 -63 -73 -43 -101 -65 -97 -75 4 -8 9 -13 13 -11 3 2 237 137 519 300
282 163 517 294 522 291 6 -3 10 -12 10 -18 0 -7 -234 -142 -520 -302 -286
-159 -520 -294 -520 -298 -1 -27 48 -8 197 76 183 104 191 105 178 25 -6 -36
-4 -43 16 -59 20 -15 21 -19 9 -34 -7 -9 -38 -31 -69 -48 -220 -128 -535 -160
-826 -85 -146 38 -309 125 -321 172 -7 30 19 83 46 91 24 8 17 25 -11 25 -14
0 -19 7 -19 26 0 35 58 88 121 110 37 14 49 23 49 38 1 12 7 32 15 46 8 14 14
37 15 52 0 41 33 58 112 58 37 0 70 -4 73 -10 12 -19 25 -10 40 26 25 61 64
77 131 54 23 -8 41 -7 73 5 64 22 80 19 121 -25 20 -21 48 -45 62 -53 l26 -13
-115 -163 c-86 -121 -112 -165 -102 -172 7 -4 16 -6 19 -4 3 2 145 202 315
444 171 242 313 440 316 441 4 0 11 -6 16 -12z m-1147 -647 c0 -12 -11 -23
-30 -29 -49 -17 -119 -71 -136 -104 -10 -20 -14 -42 -9 -64 7 -40 -12 -85 -26
-63 -13 21 -11 96 5 132 18 42 69 89 131 120 61 32 65 32 65 8z m1009 -57 c18
-13 20 -18 10 -25 -12 -7 -46 -3 -57 6 -5 4 10 35 17 35 4 0 17 -7 30 -16z
m99 -149 c5 -58 -6 -105 -23 -99 -16 7 -26 125 -10 136 19 14 30 2 33 -37z
m-1213 -215 c5 0 16 -6 24 -13 9 -7 41 -24 71 -36 30 -13 69 -30 86 -37 16 -7
73 -23 125 -36 79 -18 122 -22 274 -22 152 0 194 3 270 22 135 34 254 82 299
121 29 25 -33 -93 -87 -164 -111 -147 -265 -215 -489 -215 -118 0 -222 15
-213 30 9 15 -55 57 -81 52 -13 -2 -21 -9 -17 -15 3 -6 -5 -2 -19 9 l-26 19
30 3 c29 3 29 4 12 23 -22 24 -79 27 -70 3 8 -20 -62 35 -103 81 -33 38 -89
122 -117 176 -17 34 -17 34 3 17 11 -10 23 -18 28 -18z m420 -415 c90 -19 215
-19 306 0 64 14 91 14 78 0 -3 -2 -31 -11 -64 -20 -110 -28 -343 -16 -391 20
-24 18 -15 18 71 0z"/>
<path d="M2280 3366 c-8 -10 -6 -15 6 -20 17 -7 34 0 34 14 0 15 -28 19 -40 6z"/>
<path d="M2260 3315 c0 -19 43 -38 49 -22 4 10 -26 37 -41 37 -4 0 -8 -7 -8
-15z"/>
<path d="M2040 3255 c0 -8 9 -15 20 -15 11 0 20 2 20 5 0 2 -9 9 -20 15 -16 9
-20 8 -20 -5z"/>
<path d="M2446 3231 c-39 -15 -55 -101 -19 -101 10 0 14 7 10 19 -7 27 11 51
37 51 13 0 29 6 35 14 17 20 -25 32 -63 17z"/>
<path d="M2027 3213 c-14 -13 -6 -23 18 -23 16 0 25 6 25 15 0 15 -31 21 -43
8z"/>
<path d="M2010 3164 c0 -8 4 -14 9 -14 5 0 16 -3 25 -6 10 -4 16 -1 16 9 0 8
-11 17 -25 19 -17 4 -25 1 -25 -8z"/>
<path d="M2154 3147 c-22 -19 -26 -29 -20 -52 5 -21 10 -25 19 -16 6 6 12 19
12 29 0 12 11 19 34 22 41 6 51 25 19 34 -33 8 -34 8 -64 -17z"/>
<path d="M1985 3120 c3 -5 15 -10 26 -10 10 0 19 5 19 10 0 6 -12 10 -26 10
-14 0 -23 -4 -19 -10z"/>
<path d="M1925 3101 c-7 -12 31 -25 45 -16 6 4 8 11 5 16 -8 12 -42 12 -50 0z"/>
<path d="M1872 3071 c-10 -6 -6 -11 17 -19 19 -7 33 -7 36 -1 15 23 -24 39
-53 20z"/>
<path d="M1840 3027 c0 -19 47 -40 56 -25 8 12 -22 38 -43 38 -7 0 -13 -6 -13
-13z"/>
<path d="M1836 2931 c-9 -15 23 -36 36 -23 5 5 7 15 4 21 -9 13 -33 14 -40 2z"/>
<path d="M2011 2914 c-29 -21 -14 -41 19 -24 17 9 26 8 46 -5 13 -8 24 -20 24
-25 0 -6 9 -10 19 -10 26 0 17 34 -17 60 -30 24 -60 25 -91 4z"/>
<path d="M1820 2887 c0 -8 9 -22 20 -32 19 -18 20 -17 20 1 0 11 -9 25 -20 32
-16 10 -20 10 -20 -1z"/>
<path d="M2416 2794 c-39 -22 -20 -41 25 -25 46 16 55 14 81 -14 16 -17 27
-22 37 -16 12 7 8 15 -17 40 -35 35 -78 40 -126 15z"/>
<path d="M1875 2720 c13 -25 60 -50 97 -50 22 0 -11 34 -53 55 -61 31 -63 31
-44 -5z"/>
<path d="M1920 2653 c0 -17 34 -40 67 -46 39 -8 49 4 24 27 -21 19 -91 34 -91
19z"/>
<path d="M1993 2565 c19 -17 40 -25 64 -25 l36 0 -23 25 c-18 19 -33 25 -64
25 l-41 -1 28 -24z"/>
<path d="M2070 2100 c0 -73 3 -90 15 -90 11 0 15 11 15 40 0 36 3 40 25 40 14
0 25 5 25 10 0 6 -11 10 -25 10 -22 0 -25 4 -25 40 0 29 -4 40 -15 40 -12 0
-15 -17 -15 -90z"/>
<path d="M2530 2150 c0 -39 -1 -40 -34 -40 -30 0 -35 3 -38 28 -3 27 -4 27
-81 30 l-78 3 3 -78 3 -78 75 0 75 0 3 33 c3 29 6 32 37 32 33 0 34 -1 37 -42
2 -30 8 -43 18 -43 12 0 16 19 18 98 3 92 2 97 -18 97 -17 0 -20 -6 -20 -40z
m-100 -60 l0 -50 -50 0 -50 0 0 50 0 50 50 0 50 0 0 -50z"/>
<path d="M2970 2020 c0 -144 2 -170 15 -170 12 0 15 17 15 90 l0 90 31 0 c38
0 35 24 -4 28 -26 3 -27 5 -27 68 0 50 -3 64 -15 64 -13 0 -15 -26 -15 -170z"/>
<path d="M1850 2100 l0 -80 80 0 81 0 -3 77 c-2 50 -7 78 -15 81 -8 2 -13 -6
-13 -22 0 -24 -3 -26 -50 -26 -47 0 -50 2 -50 25 0 16 -6 25 -15 25 -12 0 -15
-16 -15 -80z m130 -25 c0 -23 -3 -25 -50 -25 -47 0 -50 2 -50 25 0 23 3 25 50
25 47 0 50 -2 50 -25z"/>
<path d="M2747 2154 c-13 -13 5 -24 39 -24 32 0 34 -2 34 -35 0 -46 -21 -94
-54 -124 -22 -21 -35 -51 -22 -51 20 0 43 20 66 57 l28 44 22 -36 c24 -38 54
-60 71 -49 7 4 -3 20 -24 43 -40 40 -57 77 -57 122 0 27 2 29 40 29 29 0 40 4
40 15 0 12 -16 15 -88 15 -49 0 -92 -3 -95 -6z"/>
<path d="M1887 1983 c-4 -3 -7 -33 -7 -65 l0 -58 110 0 110 0 0 65 c0 51 -3
65 -15 65 -8 0 -15 -9 -15 -20 0 -18 -7 -20 -75 -20 -68 0 -75 2 -75 20 0 19
-20 27 -33 13z m183 -83 c0 -18 -7 -20 -75 -20 -68 0 -75 2 -75 20 0 18 7 20
75 20 68 0 75 -2 75 -20z"/>
<path d="M2340 1960 c0 -6 38 -10 94 -10 l95 0 3 -47 c2 -35 7 -48 18 -48 11
0 16 14 18 58 l3 57 -116 0 c-70 0 -115 -4 -115 -10z"/>
</g>
</svg>
